<svg version="1.1" id="Layer_1" xmlns="http://www.w3.org/2000/svg" xmlns:xlink="http://www.w3.org/1999/xlink" x="0px" y="0px"
	 width="100%" viewBox="0 0 2000 1500" enable-background="new 0 0 2000 1500" xml:space="preserve">
<path fill="#929395" opacity="1.000000" stroke="none" 
	d="
M1060.000000,1501.000000 
	C706.666748,1501.000000 353.833557,1501.000000 1.000237,1501.000000 
	C1.000158,1001.000244 1.000158,501.000519 1.000079,1.000572 
	C667.666199,1.000381 1334.332397,1.000381 2000.999023,1.000191 
	C2000.999268,500.999390 2000.999268,1000.998779 2000.999634,1500.999023 
	C1687.500000,1501.000000 1374.000000,1501.000000 1060.000000,1501.000000 
M486.500000,1076.837280 
	C631.165344,1076.837402 775.830627,1076.829346 920.495972,1076.878662 
	C924.672485,1076.880127 927.650696,1076.992188 927.636719,1071.087891 
	C927.455505,994.588501 927.488525,918.088623 927.587341,841.589050 
	C927.592896,837.273254 926.313232,835.914368 921.894287,835.831665 
	C916.829285,835.736816 915.874512,837.705811 915.882141,842.279724 
	C916.001587,913.945984 915.966187,985.612488 915.964111,1057.278931 
	C915.963867,1065.128540 915.957214,1065.136597 908.048706,1065.136719 
	C703.716064,1065.138184 499.383453,1065.138062 295.050812,1065.136841 
	C286.573792,1065.136719 286.566223,1065.129761 286.566162,1056.655273 
	C286.564758,852.489319 286.565002,648.323303 286.566345,444.157349 
	C286.566376,442.824127 286.624542,441.489929 286.589203,440.157928 
	C286.513275,437.296509 287.742218,435.771820 290.738892,435.879608 
	C292.236511,435.933502 293.738342,435.863373 295.238251,435.863373 
	C499.404205,435.862152 703.570190,435.862030 907.736145,435.863037 
	C915.958618,435.863068 915.963989,435.868408 915.964172,443.908569 
	C915.965820,515.408325 915.999878,586.908142 915.886841,658.407715 
	C915.879517,663.064026 916.641724,665.175354 922.077026,665.216003 
	C927.940918,665.259949 927.534607,662.032104 927.533630,658.223633 
	C927.513794,582.723877 927.520203,507.224152 927.517395,431.724426 
	C927.517090,424.168976 927.505371,424.163116 919.808533,424.163086 
	C707.475952,424.162018 495.143341,424.161957 282.810760,424.163391 
	C274.989044,424.163452 274.984070,424.171326 274.984039,432.096069 
	C274.983124,644.262024 274.983154,856.427917 274.983765,1068.593872 
	C274.983765,1076.833984 274.987183,1076.837158 283.500702,1076.837280 
	C350.833801,1076.837891 418.166901,1076.837158 486.500000,1076.837280 
M798.394653,742.500000 
	C798.392883,725.853943 798.298523,709.207031 798.457336,692.562500 
	C798.494873,688.625061 797.089294,687.034668 793.237427,687.421387 
	C792.083923,687.537231 790.893433,687.559570 789.746338,687.414917 
	C785.297852,686.854065 784.014404,688.844055 784.104553,693.151489 
	C784.348206,704.798645 784.203186,716.454285 784.167847,728.106445 
	C784.162720,729.778320 783.911133,731.449341 783.707703,733.922119 
	C782.237366,732.678467 781.509460,732.240479 781.013916,731.617676 
	C769.217224,716.789185 741.449524,716.911194 728.585388,735.985168 
	C716.263184,754.255798 715.557190,773.968506 725.341553,793.342896 
	C736.869568,816.169800 764.038818,819.754272 782.154724,801.631165 
	C782.452576,801.333191 782.977661,801.262268 784.198608,800.747009 
	C784.198608,803.299316 784.109009,805.389343 784.234680,807.466309 
	C784.301880,808.576843 784.629761,810.573303 785.028442,810.621826 
	C788.758118,811.075684 792.581787,811.603882 796.250854,811.127869 
	C797.196228,811.005127 798.288452,807.423035 798.302856,805.422791 
	C798.451782,784.782776 798.393066,764.141174 798.394653,742.500000 
M855.836426,799.022522 
	C841.879761,795.611206 832.254822,784.503174 833.917786,772.999512 
	C835.783752,772.999512 837.744141,772.999573 839.704529,772.999512 
	C855.857483,772.998779 872.012512,772.853149 888.161926,773.091064 
	C892.650146,773.157166 894.130981,771.386597 893.999207,767.283020 
	C893.887024,763.789734 894.201172,760.269043 893.896912,756.798096 
	C892.642517,742.488342 887.414917,730.291138 873.254639,724.587219 
	C858.731201,718.737000 844.682373,720.429871 832.528931,730.825134 
	C822.647827,739.276733 819.421326,750.897278 818.425171,763.389832 
	C816.466431,787.955078 830.658997,808.021118 853.760498,811.337769 
	C862.264465,812.558716 871.358276,811.535767 879.915527,810.023071 
	C889.423645,808.342346 890.858643,804.545837 887.668030,794.755920 
	C877.789978,799.358582 867.494446,801.249695 855.836426,799.022522 
M1381.402344,810.938477 
	C1382.846558,810.540710 1384.305786,810.189819 1385.732666,809.737244 
	C1393.085693,807.405090 1395.044922,802.328125 1391.464966,794.945923 
	C1361.094482,808.402466 1336.717651,793.256714 1337.858398,772.999512 
	C1339.778931,772.999512 1341.739014,772.999573 1343.699097,772.999512 
	C1359.852051,772.998840 1376.007202,772.854980 1392.156738,773.090210 
	C1396.629761,773.155396 1398.142090,771.417664 1398.001221,767.293457 
	C1397.881836,763.800598 1398.102417,760.293274 1397.916382,756.806091 
	C1397.051514,740.596252 1388.403809,728.144470 1374.976074,723.610046 
	C1359.501709,718.384521 1343.238403,722.695801 1332.737915,734.788574 
	C1325.606689,743.001160 1323.298218,752.941101 1322.447266,763.405640 
	C1320.462036,787.817139 1334.378174,807.518860 1357.281006,811.286011 
	C1364.830811,812.527771 1372.799194,811.224915 1381.402344,810.938477 
M1104.360962,731.132996 
	C1083.826660,713.617310 1052.532593,719.477173 1040.547241,743.563477 
	C1032.305908,760.125610 1032.523438,777.213501 1041.507812,793.466125 
	C1055.248413,818.323181 1092.848267,820.193787 1109.547974,797.171753 
	C1123.198975,778.352661 1121.061646,748.393005 1104.360962,731.132996 
M694.097229,735.410828 
	C676.708130,714.760803 643.288696,716.660767 628.746399,739.370056 
	C619.076111,754.471191 618.323547,770.914978 624.370728,787.328064 
	C630.032532,802.695068 641.510498,811.658936 658.179932,812.878784 
	C676.067505,814.187805 690.789185,808.154968 698.674133,791.438477 
	C707.589600,772.537231 706.640076,753.663025 694.097229,735.410828 
M1180.438599,721.287354 
	C1169.559570,721.403809 1160.330078,725.047791 1153.177002,735.608521 
	C1152.850708,732.554626 1152.607422,731.155701 1152.566772,729.750977 
	C1152.353638,722.405457 1152.371582,722.404358 1145.023682,722.439880 
	C1144.190674,722.443909 1143.354736,722.508423 1142.525269,722.458557 
	C1139.489258,722.276367 1138.429810,723.807007 1138.433960,726.696655 
	C1138.472656,753.521240 1138.440308,780.345825 1138.495728,807.170410 
	C1138.498291,808.415161 1139.020996,810.686646 1139.496094,810.739807 
	C1143.239380,811.158447 1147.076050,811.499512 1150.770996,811.010559 
	C1151.592651,810.901917 1152.446899,807.416504 1152.471191,805.475647 
	C1152.664795,789.983459 1152.534424,774.486755 1152.775757,758.995728 
	C1152.888916,751.723633 1155.554321,745.272156 1161.052246,740.323975 
	C1167.769165,734.278625 1175.553833,732.121155 1184.177979,735.427246 
	C1192.399902,738.579163 1194.385010,745.754089 1194.871704,753.625610 
	C1194.964111,755.120178 1194.922729,756.623657 1194.923096,758.123047 
	C1194.926880,774.117920 1195.189331,790.119324 1194.796509,806.104492 
	C1194.642090,812.395447 1198.345459,811.506897 1202.180420,811.668213 
	C1206.290894,811.841125 1209.071655,811.570984 1208.972290,806.004395 
	C1208.648315,787.849304 1208.907104,769.684570 1208.830078,751.524048 
	C1208.751953,733.100281 1199.635498,723.154907 1180.438599,721.287354 
M1284.306763,739.233276 
	C1288.247559,743.394653 1289.192627,748.537720 1289.190918,754.010071 
	C1289.185669,770.164246 1289.201416,786.318481 1289.206909,802.472656 
	C1289.210205,812.086426 1289.208496,812.086243 1298.837158,811.621582 
	C1299.169800,811.605530 1299.635132,811.739563 1299.814575,811.568542 
	C1301.050659,810.390625 1303.264648,809.152893 1303.267944,807.929260 
	C1303.323975,786.952698 1303.608643,765.954468 1302.738281,745.006836 
	C1302.287354,734.150757 1295.706543,726.503906 1285.190308,722.926208 
	C1271.880981,718.398315 1258.169922,722.521057 1249.364746,733.458008 
	C1248.915161,734.016418 1248.283447,734.428223 1246.954956,735.594360 
	C1246.954956,732.457947 1246.704834,730.300049 1247.002441,728.220642 
	C1247.849976,722.299927 1244.167480,722.386597 1239.997314,722.360352 
	C1235.747803,722.333557 1232.845215,722.440247 1232.950928,728.278076 
	C1233.303589,747.756653 1233.083130,767.245605 1233.083862,786.730591 
	C1233.084106,793.558655 1233.196167,800.389099 1233.044800,807.213745 
	C1232.972778,810.460815 1234.265625,811.824219 1237.443237,811.630859 
	C1238.770386,811.549988 1240.122681,811.494751 1241.436157,811.653870 
	C1245.903198,812.194946 1247.109253,810.175903 1247.040894,805.886475 
	C1246.815552,791.734375 1246.737549,777.570801 1247.087280,763.423645 
	C1247.208496,758.523987 1247.993530,753.363892 1249.774292,748.833496 
	C1255.416626,734.478699 1272.600464,729.572998 1284.306763,739.233276 
M1447.039185,812.208984 
	C1451.467773,811.694824 1455.937744,811.390991 1460.299561,810.536499 
	C1461.582886,810.285034 1463.360229,808.580688 1463.524170,807.356384 
	C1463.971313,804.019043 1463.677856,800.582520 1463.677856,796.616394 
	C1461.124390,797.587585 1459.476685,798.307434 1457.771973,798.847900 
	C1446.032227,802.569275 1438.645020,797.449951 1438.512573,785.221252 
	C1438.346558,769.894409 1438.529907,754.563965 1438.412720,739.236206 
	C1438.383789,735.451843 1439.665894,733.740417 1443.630737,733.907288 
	C1448.619995,734.117310 1453.632324,734.086609 1458.619507,733.846375 
	C1460.000732,733.779785 1462.100952,732.930725 1462.551636,731.876526 
	C1465.028442,726.082581 1462.431030,722.462158 1456.123779,722.432007 
	C1455.290649,722.427979 1454.457642,722.431030 1453.624512,722.430908 
	C1438.509766,722.428101 1438.509766,722.428162 1438.449585,707.466003 
	C1438.421021,700.365601 1438.421021,700.365601 1431.219849,700.366882 
	C1424.218628,700.368225 1424.216553,700.368225 1424.196655,707.142273 
	C1424.189697,709.474915 1424.197388,711.807495 1424.194702,714.140137 
	C1424.185425,722.315125 1424.180176,722.524353 1416.005859,722.349548 
	C1411.549438,722.254333 1409.825928,723.539246 1409.937378,728.273376 
	C1410.038208,732.560059 1411.188721,734.166016 1415.656006,734.041931 
	C1424.509277,733.795959 1424.191895,732.899231 1424.196411,742.717041 
	C1424.203247,757.379150 1424.026123,772.044678 1424.281982,786.702515 
	C1424.553711,802.270447 1431.656494,810.273499 1447.039185,812.208984 
M540.355347,752.926453 
	C540.062073,754.054932 539.722900,755.173767 539.482117,756.313354 
	C532.274170,790.423401 558.539246,821.672729 597.357605,811.515015 
	C605.403687,809.409546 607.240417,804.501038 603.595581,796.342712 
	C587.818054,802.972229 572.612793,803.828552 560.340576,789.606384 
	C551.239746,779.059448 550.031311,761.678040 557.487122,749.660767 
	C569.103943,730.936462 586.001404,731.100281 604.279541,738.107239 
	C605.846497,724.537048 605.592896,724.747131 593.946533,722.084412 
	C569.971802,716.603149 548.692139,728.868958 540.355347,752.926453 
M982.255127,796.475159 
	C968.700256,787.536987 963.337585,769.965149 969.425598,754.059265 
	C972.003052,747.325256 976.242920,741.748718 982.590210,738.224182 
	C994.398682,731.667236 1006.462341,732.854980 1018.995361,738.543213 
	C1018.995361,735.059753 1018.851013,732.412781 1019.033691,729.788696 
	C1019.238770,726.842346 1018.058533,725.098938 1015.293823,724.143311 
	C999.085327,718.540894 983.578003,719.733521 969.791138,730.265015 
	C952.598083,743.398560 947.485962,769.151550 957.386475,789.195923 
	C966.767517,808.188599 988.124207,817.487671 1009.876831,812.051025 
	C1019.375061,809.677124 1021.238892,806.129639 1017.851379,796.128784 
	C1006.346252,801.854065 994.655640,802.707153 982.255127,796.475159 
z"/>
<path fill="#3A5C83" opacity="1.000000" stroke="none" 
	d="
M486.000000,1076.837036 
	C418.166901,1076.837158 350.833801,1076.837891 283.500702,1076.837280 
	C274.987183,1076.837158 274.983765,1076.833984 274.983765,1068.593872 
	C274.983154,856.427917 274.983124,644.262024 274.984039,432.096069 
	C274.984070,424.171326 274.989044,424.163452 282.810760,424.163391 
	C495.143341,424.161957 707.475952,424.162018 919.808533,424.163086 
	C927.505371,424.163116 927.517090,424.168976 927.517395,431.724426 
	C927.520203,507.224152 927.513794,582.723877 927.533630,658.223633 
	C927.534607,662.032104 927.940918,665.259949 922.077026,665.216003 
	C916.641724,665.175354 915.879517,663.064026 915.886841,658.407715 
	C915.999878,586.908142 915.965820,515.408325 915.964172,443.908569 
	C915.963989,435.868408 915.958618,435.863068 907.736145,435.863037 
	C703.570190,435.862030 499.404205,435.862152 295.238251,435.863373 
	C293.738342,435.863373 292.236511,435.933502 290.738892,435.879608 
	C287.742218,435.771820 286.513275,437.296509 286.589203,440.157928 
	C286.624542,441.489929 286.566376,442.824127 286.566345,444.157349 
	C286.565002,648.323303 286.564758,852.489319 286.566162,1056.655273 
	C286.566223,1065.129761 286.573792,1065.136719 295.050812,1065.136841 
	C499.383453,1065.138062 703.716064,1065.138184 908.048706,1065.136719 
	C915.957214,1065.136597 915.963867,1065.128540 915.964111,1057.278931 
	C915.966187,985.612488 916.001587,913.945984 915.882141,842.279724 
	C915.874512,837.705811 916.829285,835.736816 921.894287,835.831665 
	C926.313232,835.914368 927.592896,837.273254 927.587341,841.589050 
	C927.488525,918.088623 927.455505,994.588501 927.636719,1071.087891 
	C927.650696,1076.992188 924.672485,1076.880127 920.495972,1076.878662 
	C775.830627,1076.829346 631.165344,1076.837402 486.000000,1076.837036 
z"/>
<path fill="#395B82" opacity="1.000000" stroke="none" 
	d="
M798.393433,743.000000 
	C798.393066,764.141174 798.451782,784.782776 798.302856,805.422791 
	C798.288452,807.423035 797.196228,811.005127 796.250854,811.127869 
	C792.581787,811.603882 788.758118,811.075684 785.028442,810.621826 
	C784.629761,810.573303 784.301880,808.576843 784.234680,807.466309 
	C784.109009,805.389343 784.198608,803.299316 784.198608,800.747009 
	C782.977661,801.262268 782.452576,801.333191 782.154724,801.631165 
	C764.038818,819.754272 736.869568,816.169800 725.341553,793.342896 
	C715.557190,773.968506 716.263184,754.255798 728.585388,735.985168 
	C741.449524,716.911194 769.217224,716.789185 781.013916,731.617676 
	C781.509460,732.240479 782.237366,732.678467 783.707703,733.922119 
	C783.911133,731.449341 784.162720,729.778320 784.167847,728.106445 
	C784.203186,716.454285 784.348206,704.798645 784.104553,693.151489 
	C784.014404,688.844055 785.297852,686.854065 789.746338,687.414917 
	C790.893433,687.559570 792.083923,687.537231 793.237427,687.421387 
	C797.089294,687.034668 798.494873,688.625061 798.457336,692.562500 
	C798.298523,709.207031 798.392883,725.853943 798.393433,743.000000 
M761.127625,799.982910 
	C771.062622,798.576233 778.200806,793.296631 781.531860,783.867188 
	C785.344482,773.074646 785.466675,761.936462 781.916931,751.027588 
	C778.586487,740.792542 769.112610,734.012512 759.054260,733.995972 
	C748.889343,733.979248 740.188965,740.190308 736.513550,750.621460 
	C732.754456,761.290039 732.483521,772.200378 736.154358,782.935181 
	C740.095886,794.461609 748.310791,800.070557 761.127625,799.982910 
z"/>
<path fill="#385B82" opacity="1.000000" stroke="none" 
	d="
M856.255859,799.089600 
	C867.494446,801.249695 877.789978,799.358582 887.668030,794.755920 
	C890.858643,804.545837 889.423645,808.342346 879.915527,810.023071 
	C871.358276,811.535767 862.264465,812.558716 853.760498,811.337769 
	C830.658997,808.021118 816.466431,787.955078 818.425171,763.389832 
	C819.421326,750.897278 822.647827,739.276733 832.528931,730.825134 
	C844.682373,720.429871 858.731201,718.737000 873.254639,724.587219 
	C887.414917,730.291138 892.642517,742.488342 893.896912,756.798096 
	C894.201172,760.269043 893.887024,763.789734 893.999207,767.283020 
	C894.130981,771.386597 892.650146,773.157166 888.161926,773.091064 
	C872.012512,772.853149 855.857483,772.998779 839.704529,772.999512 
	C837.744141,772.999573 835.783752,772.999512 833.917786,772.999512 
	C832.254822,784.503174 841.879761,795.611206 856.255859,799.089600 
M869.660950,736.585388 
	C852.783447,728.907898 835.959167,738.272217 833.286438,756.747375 
	C832.856995,759.715515 833.596130,761.174622 836.788208,761.162842 
	C849.949158,761.114075 863.110413,761.119507 876.271423,761.153687 
	C879.020813,761.160828 880.108521,759.914673 880.114746,757.199585 
	C880.133911,748.833801 877.368896,741.877991 869.660950,736.585388 
z"/>
<path fill="#385B82" opacity="1.000000" stroke="none" 
	d="
M1380.989258,811.012085 
	C1372.799194,811.224915 1364.830811,812.527771 1357.281006,811.286011 
	C1334.378174,807.518860 1320.462036,787.817139 1322.447266,763.405640 
	C1323.298218,752.941101 1325.606689,743.001160 1332.737915,734.788574 
	C1343.238403,722.695801 1359.501709,718.384521 1374.976074,723.610046 
	C1388.403809,728.144470 1397.051514,740.596252 1397.916382,756.806091 
	C1398.102417,760.293274 1397.881836,763.800598 1398.001221,767.293457 
	C1398.142090,771.417664 1396.629761,773.155396 1392.156738,773.090210 
	C1376.007202,772.854980 1359.852051,772.998840 1343.699097,772.999512 
	C1341.739014,772.999573 1339.778931,772.999512 1337.858398,772.999512 
	C1336.717651,793.256714 1361.094482,808.402466 1391.464966,794.945923 
	C1395.044922,802.328125 1393.085693,807.405090 1385.732666,809.737244 
	C1384.305786,810.189819 1382.846558,810.540710 1380.989258,811.012085 
M1353.215942,735.353333 
	C1343.660400,739.369446 1339.236328,747.168945 1337.294067,756.842468 
	C1336.684692,759.877991 1337.790283,761.178650 1340.886230,761.167236 
	C1353.875122,761.119507 1366.864868,761.097290 1379.853394,761.183594 
	C1383.150146,761.205444 1384.089478,759.731384 1384.146484,756.626038 
	C1384.449707,740.133606 1370.798828,730.331543 1353.215942,735.353333 
z"/>
<path fill="#385B82" opacity="1.000000" stroke="none" 
	d="
M1104.616333,731.377930 
	C1121.061646,748.393005 1123.198975,778.352661 1109.547974,797.171753 
	C1092.848267,820.193787 1055.248413,818.323181 1041.507812,793.466125 
	C1032.523438,777.213501 1032.305908,760.125610 1040.547241,743.563477 
	C1052.532593,719.477173 1083.826660,713.617310 1104.616333,731.377930 
M1103.690796,761.079895 
	C1102.249390,756.327087 1101.480591,751.228821 1099.247803,746.882629 
	C1090.571655,729.994690 1065.851074,728.725403 1055.872437,744.849426 
	C1047.012939,759.165161 1046.752319,774.369324 1055.477905,788.853516 
	C1065.460205,805.423950 1089.120239,804.778015 1098.863037,788.039673 
	C1103.561890,779.966675 1104.550537,771.115112 1103.690796,761.079895 
z"/>
<path fill="#385B82" opacity="1.000000" stroke="none" 
	d="
M694.311584,735.695496 
	C706.640076,753.663025 707.589600,772.537231 698.674133,791.438477 
	C690.789185,808.154968 676.067505,814.187805 658.179932,812.878784 
	C641.510498,811.658936 630.032532,802.695068 624.370728,787.328064 
	C618.323547,770.914978 619.076111,754.471191 628.746399,739.370056 
	C643.288696,716.660767 676.708130,714.760803 694.311584,735.695496 
M639.785095,786.566284 
	C645.187683,796.401062 653.344421,801.560913 664.704590,800.632385 
	C676.549561,799.664307 683.890564,792.700806 687.462646,781.806885 
	C691.352234,769.944458 690.910339,758.110229 685.085510,746.883484 
	C676.241577,729.837769 651.377869,728.842407 641.356750,745.270081 
	C633.405090,758.305298 633.200989,772.034668 639.785095,786.566284 
z"/>
<path fill="#385B82" opacity="1.000000" stroke="none" 
	d="
M1180.879639,721.294556 
	C1199.635498,723.154907 1208.751953,733.100281 1208.830078,751.524048 
	C1208.907104,769.684570 1208.648315,787.849304 1208.972290,806.004395 
	C1209.071655,811.570984 1206.290894,811.841125 1202.180420,811.668213 
	C1198.345459,811.506897 1194.642090,812.395447 1194.796509,806.104492 
	C1195.189331,790.119324 1194.926880,774.117920 1194.923096,758.123047 
	C1194.922729,756.623657 1194.964111,755.120178 1194.871704,753.625610 
	C1194.385010,745.754089 1192.399902,738.579163 1184.177979,735.427246 
	C1175.553833,732.121155 1167.769165,734.278625 1161.052246,740.323975 
	C1155.554321,745.272156 1152.888916,751.723633 1152.775757,758.995728 
	C1152.534424,774.486755 1152.664795,789.983459 1152.471191,805.475647 
	C1152.446899,807.416504 1151.592651,810.901917 1150.770996,811.010559 
	C1147.076050,811.499512 1143.239380,811.158447 1139.496094,810.739807 
	C1139.020996,810.686646 1138.498291,808.415161 1138.495728,807.170410 
	C1138.440308,780.345825 1138.472656,753.521240 1138.433960,726.696655 
	C1138.429810,723.807007 1139.489258,722.276367 1142.525269,722.458557 
	C1143.354736,722.508423 1144.190674,722.443909 1145.023682,722.439880 
	C1152.371582,722.404358 1152.353638,722.405457 1152.566772,729.750977 
	C1152.607422,731.155701 1152.850708,732.554626 1153.177002,735.608521 
	C1160.330078,725.047791 1169.559570,721.403809 1180.879639,721.294556 
z"/>
<path fill="#395B82" opacity="1.000000" stroke="none" 
	d="
M1284.044434,738.969666 
	C1272.600464,729.572998 1255.416626,734.478699 1249.774292,748.833496 
	C1247.993530,753.363892 1247.208496,758.523987 1247.087280,763.423645 
	C1246.737549,777.570801 1246.815552,791.734375 1247.040894,805.886475 
	C1247.109253,810.175903 1245.903198,812.194946 1241.436157,811.653870 
	C1240.122681,811.494751 1238.770386,811.549988 1237.443237,811.630859 
	C1234.265625,811.824219 1232.972778,810.460815 1233.044800,807.213745 
	C1233.196167,800.389099 1233.084106,793.558655 1233.083862,786.730591 
	C1233.083130,767.245605 1233.303589,747.756653 1232.950928,728.278076 
	C1232.845215,722.440247 1235.747803,722.333557 1239.997314,722.360352 
	C1244.167480,722.386597 1247.849976,722.299927 1247.002441,728.220642 
	C1246.704834,730.300049 1246.954956,732.457947 1246.954956,735.594360 
	C1248.283447,734.428223 1248.915161,734.016418 1249.364746,733.458008 
	C1258.169922,722.521057 1271.880981,718.398315 1285.190308,722.926208 
	C1295.706543,726.503906 1302.287354,734.150757 1302.738281,745.006836 
	C1303.608643,765.954468 1303.323975,786.952698 1303.267944,807.929260 
	C1303.264648,809.152893 1301.050659,810.390625 1299.814575,811.568542 
	C1299.635132,811.739563 1299.169800,811.605530 1298.837158,811.621582 
	C1289.208496,812.086243 1289.210205,812.086426 1289.206909,802.472656 
	C1289.201416,786.318481 1289.185669,770.164246 1289.190918,754.010071 
	C1289.192627,748.537720 1288.247559,743.394653 1284.044434,738.969666 
z"/>
<path fill="#395B82" opacity="1.000000" stroke="none" 
	d="
M1446.619141,812.161377 
	C1431.656494,810.273499 1424.553711,802.270447 1424.281982,786.702515 
	C1424.026123,772.044678 1424.203247,757.379150 1424.196411,742.717041 
	C1424.191895,732.899231 1424.509277,733.795959 1415.656006,734.041931 
	C1411.188721,734.166016 1410.038208,732.560059 1409.937378,728.273376 
	C1409.825928,723.539246 1411.549438,722.254333 1416.005859,722.349548 
	C1424.180176,722.524353 1424.185425,722.315125 1424.194702,714.140137 
	C1424.197388,711.807495 1424.189697,709.474915 1424.196655,707.142273 
	C1424.216553,700.368225 1424.218628,700.368225 1431.219849,700.366882 
	C1438.421021,700.365601 1438.421021,700.365601 1438.449585,707.466003 
	C1438.509766,722.428162 1438.509766,722.428101 1453.624512,722.430908 
	C1454.457642,722.431030 1455.290649,722.427979 1456.123779,722.432007 
	C1462.431030,722.462158 1465.028442,726.082581 1462.551636,731.876526 
	C1462.100952,732.930725 1460.000732,733.779785 1458.619507,733.846375 
	C1453.632324,734.086609 1448.619995,734.117310 1443.630737,733.907288 
	C1439.665894,733.740417 1438.383789,735.451843 1438.412720,739.236206 
	C1438.529907,754.563965 1438.346558,769.894409 1438.512573,785.221252 
	C1438.645020,797.449951 1446.032227,802.569275 1457.771973,798.847900 
	C1459.476685,798.307434 1461.124390,797.587585 1463.677856,796.616394 
	C1463.677856,800.582520 1463.971313,804.019043 1463.524170,807.356384 
	C1463.360229,808.580688 1461.582886,810.285034 1460.299561,810.536499 
	C1455.937744,811.390991 1451.467773,811.694824 1446.619141,812.161377 
z"/>
<path fill="#395B82" opacity="1.000000" stroke="none" 
	d="
M540.491272,752.551758 
	C548.692139,728.868958 569.971802,716.603149 593.946533,722.084412 
	C605.592896,724.747131 605.846497,724.537048 604.279541,738.107239 
	C586.001404,731.100281 569.103943,730.936462 557.487122,749.660767 
	C550.031311,761.678040 551.239746,779.059448 560.340576,789.606384 
	C572.612793,803.828552 587.818054,802.972229 603.595581,796.342712 
	C607.240417,804.501038 605.403687,809.409546 597.357605,811.515015 
	C558.539246,821.672729 532.274170,790.423401 539.482117,756.313354 
	C539.722900,755.173767 540.062073,754.054932 540.491272,752.551758 
z"/>
<path fill="#385B82" opacity="1.000000" stroke="none" 
	d="
M982.585571,796.656250 
	C994.655640,802.707153 1006.346252,801.854065 1017.851379,796.128784 
	C1021.238892,806.129639 1019.375061,809.677124 1009.876831,812.051025 
	C988.124207,817.487671 966.767517,808.188599 957.386475,789.195923 
	C947.485962,769.151550 952.598083,743.398560 969.791138,730.265015 
	C983.578003,719.733521 999.085327,718.540894 1015.293823,724.143311 
	C1018.058533,725.098938 1019.238770,726.842346 1019.033691,729.788696 
	C1018.851013,732.412781 1018.995361,735.059753 1018.995361,738.543213 
	C1006.462341,732.854980 994.398682,731.667236 982.590210,738.224182 
	C976.242920,741.748718 972.003052,747.325256 969.425598,754.059265 
	C963.337585,769.965149 968.700256,787.536987 982.585571,796.656250 
z"/>
<path fill="#919295" opacity="1.000000" stroke="none" 
	d="
M760.690308,800.006226 
	C748.310791,800.070557 740.095886,794.461609 736.154358,782.935181 
	C732.483521,772.200378 732.754456,761.290039 736.513550,750.621460 
	C740.188965,740.190308 748.889343,733.979248 759.054260,733.995972 
	C769.112610,734.012512 778.586487,740.792542 781.916931,751.027588 
	C785.466675,761.936462 785.344482,773.074646 781.531860,783.867188 
	C778.200806,793.296631 771.062622,798.576233 760.690308,800.006226 
z"/>
<path fill="#919295" opacity="1.000000" stroke="none" 
	d="
M869.981262,736.782593 
	C877.368896,741.877991 880.133911,748.833801 880.114746,757.199585 
	C880.108521,759.914673 879.020813,761.160828 876.271423,761.153687 
	C863.110413,761.119507 849.949158,761.114075 836.788208,761.162842 
	C833.596130,761.174622 832.856995,759.715515 833.286438,756.747375 
	C835.959167,738.272217 852.783447,728.907898 869.981262,736.782593 
z"/>
<path fill="#919295" opacity="1.000000" stroke="none" 
	d="
M1353.595703,735.218872 
	C1370.798828,730.331543 1384.449707,740.133606 1384.146484,756.626038 
	C1384.089478,759.731384 1383.150146,761.205444 1379.853394,761.183594 
	C1366.864868,761.097290 1353.875122,761.119507 1340.886230,761.167236 
	C1337.790283,761.178650 1336.684692,759.877991 1337.294067,756.842468 
	C1339.236328,747.168945 1343.660400,739.369446 1353.595703,735.218872 
z"/>
<path fill="#919295" opacity="1.000000" stroke="none" 
	d="
M1103.746826,761.525635 
	C1104.550537,771.115112 1103.561890,779.966675 1098.863037,788.039673 
	C1089.120239,804.778015 1065.460205,805.423950 1055.477905,788.853516 
	C1046.752319,774.369324 1047.012939,759.165161 1055.872437,744.849426 
	C1065.851074,728.725403 1090.571655,729.994690 1099.247803,746.882629 
	C1101.480591,751.228821 1102.249390,756.327087 1103.746826,761.525635 
z"/>
<path fill="#919295" opacity="1.000000" stroke="none" 
	d="
M639.601501,786.237915 
	C633.200989,772.034668 633.405090,758.305298 641.356750,745.270081 
	C651.377869,728.842407 676.241577,729.837769 685.085510,746.883484 
	C690.910339,758.110229 691.352234,769.944458 687.462646,781.806885 
	C683.890564,792.700806 676.549561,799.664307 664.704590,800.632385 
	C653.344421,801.560913 645.187683,796.401062 639.601501,786.237915 
z"/>
</svg>